# xmcd
#
# Track frame offsets:
#	158
#	17760
#	38310
#	62298
#	86923
#	118190
#	163588
#	183918
#	225498
#	250990
#
# Disc length: 3684 seconds
#
# Revision: 2
# Processed by: cddbd v1.5.2PL0 Copyright (c) Steve Scherf et al.
# Submitted via: audiograbber 1.83.01
#
DISCID=710e620a
DTITLE=Benny Waters - Swinging Again
DYEAR=1993
DGENRE=Jazz
TTITLE0=Benny's Bounced Blues
TTITLE1=Please Don't Talk About Me When Iam Gone
TTITLE2=Autumn Leaves
TTITLE3=Them There Eyes
TTITLE4=Just One Of Those Things
TTITLE5=The Nearness Of You
TTITLE6=Strike Up The Band
TTITLE7=Blue Waters
TTITLE8=Undecided
TTITLE9=Wham
EXTD=
EXTT0=
EXTT1=
EXTT2=
EXTT3=
EXTT4=
EXTT5=
EXTT6=
EXTT7=
EXTT8=
EXTT9=
PLAYORDER=
